<!--?xml version="1.0" encoding="utf-8"?-->
<!-- Generator: Adobe Illustrator 24.1.1, SVG Export Plug-In . SVG Version: 6.00 Build 0)  -->
<svg version="1.1" id="_x31_0" xmlns="http://www.w3.org/2000/svg" xmlns:xlink="http://www.w3.org/1999/xlink" x="0px" y="0px" viewBox="0 0 512 512" style="width: 256px; height: 256px; opacity: 1;" xml:space="preserve">
<style type="text/css">
	.st0{fill:#374149;}
</style>
<g>
	<path class="st0" d="M470.564,231.299c-4.086-3.25-8.442-6.157-13.008-8.786c0,0,0.414-2.008,0.969-7.613
		c0.691-6.711,0.828-13.493-0.141-20.133c-1.797-12.527-6.09-22.559-11.832-33.629c-16.258-31.41-49.817-51.618-85.313-51.618
		c-4.98,0-10.031,0.348-14.945,1.18c-2.352,0.343-4.637,0.828-6.848,1.378c-4.637-7.882-10.106-15.636-16.816-22.832
		c-20.203-21.726-47.394-36.461-76.594-41.515c-7.543-1.313-15.294-2.004-23.039-2.004c-51.758,0-100.121,29.886-123.164,76.246
		c-7.262,14.531-11.828,30.167-13.492,46.289c-0.066,0.625-0.137,1.25-0.207,1.938c-6.641,2.355-13.352,5.332-19.996,9.203
		c-19.582,11.281-36.047,27.538-47.602,46.98C-7.756,270.6-5.959,326.435,23.17,368.783c18.406,26.637,47.469,57.289,109.738,57.289
		h63.171l-26.152-34.594h-37.019c-41.723,0-62.894-15.778-81.23-42.347c-21.379-31.066-22.696-72.649-3.462-105.031
		c8.582-14.321,20.758-26.43,35.223-34.734c10.102-5.879,20.965-8.992,32.102-11.762h0.004l85.726,85.726v-9.825l-80.887-80.886
		c-0.137-6.918-0.343-13.836,0.348-20.754c1.246-11.973,4.703-23.734,10.102-34.531c17.434-35.008,53.762-57.012,92.164-57.012
		c5.672,0,11.414,0.485,17.156,1.454c21.797,3.808,42.07,14.808,57.086,30.996c11.692,12.527,18.61,27.538,24.906,43.179h0.07
		l0.07,0.137c9.547-4.496,18.89-9.55,29.477-11.278c3.179-0.484,6.293-0.691,9.476-0.691c22.555,0,44.074,12.59,54.594,32.934
		c6.503,12.454,8.578,27.121,5.671,40.894c-1.66,8.16-5.258,16.051-8.441,23.66l-0.07,0.141l13.699,4.633
		c8.168,2.703,15.777,6.782,22.488,12.11c29.477,23.18,37.226,66.285,17.09,98.117c-9.27,14.598-23.594,25.734-39.992,31.203
		c-9.203,3.043-18.473,3.668-28.019,3.668h-56.184l-9.828,13.008l-4.218,5.606l-12.11,15.98h28.094h4.981h49.266
		c10.378,0,24.214-0.625,38.882-5.465c24.078-7.89,44.836-24.078,58.398-45.527C524.946,328.58,513.946,265.482,470.564,231.299z" style="fill: rgb(75, 75, 75);"></path>
	<path class="st0" d="M317.442,389.678l15.153-19.996c3.39-4.496,0.207-11-5.465-11h-30.375c-3.738,0-6.782-3.047-6.782-6.851
		v-110.5c0-3.801-3.113-6.852-6.851-6.852h-54.246c-3.804,0-6.847,3.051-6.847,6.852v52.934v9.824v47.742
		c0,3.804-3.047,6.851-6.852,6.851h-30.374c-5.606,0-8.856,6.504-5.398,11l16.538,21.797l26.153,34.594l28.438,37.504
		c1.382,1.797,3.39,2.695,5.469,2.695c2.004,0,4.082-0.898,5.465-2.695l28.438-37.504l23.316-30.789l2.836-3.805L317.442,389.678z" style="fill: rgb(75, 75, 75);"></path>
</g>
</svg>
