{"asset":{"version":"2.0","generator":"Blockbench 4.7.2 glTF exporter"},"scenes":[{"nodes":[21],"name":"blockbench_export"}],"scene":0,"nodes":[{"name":"plate_0"},{"name":"saku"},{"name":"other"},{"rotation":[0.7071067811865475,0,0,0.7071067811865476],"name":"tube","mesh":0},{"rotation":[0.7071067811865475,0,0,0.7071067811865476],"name":"cylinder","mesh":1},{"rotation":[0.7071067811865475,0,0,0.7071067811865476],"name":"cylinder","mesh":2},{"rotation":[0.7071067811865475,0,0,0.7071067811865476],"name":"cylinder","mesh":3},{"rotation":[0.7071067811865475,0,0,0.7071067811865476],"name":"cylinder","mesh":4},{"rotation":[0.7071067811865475,0,0,0.7071067811865476],"name":"cylinder","mesh":5},{"rotation":[0.7071067811865475,0,0,0.7071067811865476],"name":"cylinder","mesh":6},{"translation":[2.0625,0.5625,0],"name":"syarin_0","children":[3,4,5,6,7,8,9]},{"rotation":[0.7071067811865475,0,0,0.7071067811865476],"name":"tube","mesh":7},{"rotation":[0.7071067811865475,0,0,0.7071067811865476],"name":"cylinder","mesh":8},{"rotation":[0.7071067811865475,0,0,0.7071067811865476],"name":"cylinder","mesh":9},{"rotation":[0.7071067811865475,0,0,0.7071067811865476],"name":"cylinder","mesh":10},{"rotation":[0.7071067811865475,0,0,0.7071067811865476],"name":"cylinder","mesh":11},{"rotation":[0.7071067811865475,0,0,0.7071067811865476],"name":"cylinder","mesh":12},{"rotation":[0.7071067811865475,0,0,0.7071067811865476],"name":"cylinder","mesh":13},{"translation":[0,0.5625,0],"name":"syarin_1","children":[11,12,13,14,15,16,17]},{"translation":[-1.0625,0,0],"name":"daisya_0","children":[10,18]},{"name":"main","children":[0,1,2,19]},{"children":[20]}],"bufferViews":[{"buffer":0,"byteOffset":0,"byteLength":2304,"target":34962,"byteStride":12},{"buffer":0,"byteOffset":2304,"byteLength":2304,"target":34962,"byteStride":12},{"buffer":0,"byteOffset":4608,"byteLength":1536,"target":34962,"byteStride":8},{"buffer":0,"byteOffset":6144,"byteLength":576,"target":34963},{"buffer":0,"byteOffset":6720,"byteLength":1440,"target":34962,"byteStride":12},{"buffer":0,"byteOffset":8160,"byteLength":1440,"target":34962,"byteStride":12},{"buffer":0,"byteOffset":9600,"byteLength":960,"target":34962,"byteStride":8},{"buffer":0,"byteOffset":10560,"byteLength":288,"target":34963},{"buffer":0,"byteOffset":10848,"byteLength":1440,"target":34962,"byteStride":12},{"buffer":0,"byteOffset":12288,"byteLength":1440,"target":34962,"byteStride":12},{"buffer":0,"byteOffset":13728,"byteLength":960,"target":34962,"byteStride":8},{"buffer":0,"byteOffset":14688,"byteLength":288,"target":34963},{"buffer":0,"byteOffset":14976,"byteLength":1440,"target":34962,"byteStride":12},{"buffer":0,"byteOffset":16416,"byteLength":1440,"target":34962,"byteStride":12},{"buffer":0,"byteOffset":17856,"byteLength":960,"target":34962,"byteStride":8},{"buffer":0,"byteOffset":18816,"byteLength":288,"target":34963},{"buffer":0,"byteOffset":19104,"byteLength":1440,"target":34962,"byteStride":12},{"buffer":0,"byteOffset":20544,"byteLength":1440,"target":34962,"byteStride":12},{"buffer":0,"byteOffset":21984,"byteLength":960,"target":34962,"byteStride":8},{"buffer":0,"byteOffset":22944,"byteLength":288,"target":34963},{"buffer":0,"byteOffset":23232,"byteLength":1440,"target":34962,"byteStride":12},{"buffer":0,"byteOffset":24672,"byteLength":1440,"target":34962,"byteStride":12},{"buffer":0,"byteOffset":26112,"byteLength":960,"target":34962,"byteStride":8},{"buffer":0,"byteOffset":27072,"byteLength":288,"target":34963},{"buffer":0,"byteOffset":27360,"byteLength":1440,"target":34962,"byteStride":12},{"buffer":0,"byteOffset":28800,"byteLength":1440,"target":34962,"byteStride":12},{"buffer":0,"byteOffset":30240,"byteLength":960,"target":34962,"byteStride":8},{"buffer":0,"byteOffset":31200,"byteLength":288,"target":34963},{"buffer":0,"byteOffset":31488,"byteLength":2304,"target":34962,"byteStride":12},{"buffer":0,"byteOffset":33792,"byteLength":2304,"target":34962,"byteStride":12},{"buffer":0,"byteOffset":36096,"byteLength":1536,"target":34962,"byteStride":8},{"buffer":0,"byteOffset":37632,"byteLength":576,"target":34963},{"buffer":0,"byteOffset":38208,"byteLength":1440,"target":34962,"byteStride":12},{"buffer":0,"byteOffset":39648,"byteLength":1440,"target":34962,"byteStride":12},{"buffer":0,"byteOffset":41088,"byteLength":960,"target":34962,"byteStride":8},{"buffer":0,"byteOffset":42048,"byteLength":288,"target":34963},{"buffer":0,"byteOffset":42336,"byteLength":1440,"target":34962,"byteStride":12},{"buffer":0,"byteOffset":43776,"byteLength":1440,"target":34962,"byteStride":12},{"buffer":0,"byteOffset":45216,"byteLength":960,"target":34962,"byteStride":8},{"buffer":0,"byteOffset":46176,"byteLength":288,"target":34963},{"buffer":0,"byteOffset":46464,"byteLength":1440,"target":34962,"byteStride":12},{"buffer":0,"byteOffset":47904,"byteLength":1440,"target":34962,"byteStride":12},{"buffer":0,"byteOffset":49344,"byteLength":960,"target":34962,"byteStride":8},{"buffer":0,"byteOffset":50304,"byteLength":288,"target":34963},{"buffer":0,"byteOffset":50592,"byteLength":1440,"target":34962,"byteStride":12},{"buffer":0,"byteOffset":52032,"byteLength":1440,"target":34962,"byteStride":12},{"buffer":0,"byteOffset":53472,"byteLength":960,"target":34962,"byteStride":8},{"buffer":0,"byteOffset":54432,"byteLength":288,"target":34963},{"buffer":0,"byteOffset":54720,"byteLength":1440,"target":34962,"byteStride":12},{"buffer":0,"byteOffset":56160,"byteLength":1440,"target":34962,"byteStride":12},{"buffer":0,"byteOffset":57600,"byteLength":960,"target":34962,"byteStride":8},{"buffer":0,"byteOffset":58560,"byteLength":288,"target":34963},{"buffer":0,"byteOffset":58848,"byteLength":1440,"target":34962,"byteStride":12},{"buffer":0,"byteOffset":60288,"byteLength":1440,"target":34962,"byteStride":12},{"buffer":0,"byteOffset":61728,"byteLength":960,"target":34962,"byteStride":8},{"buffer":0,"byteOffset":62688,"byteLength":288,"target":34963}],"buffers":[{"byteLength":62976,"uri":"data:application/octet-stream;base64,"}],"accessors":[{"bufferView":0,"componentType":5126,"count":192,"max":[0.1875,0.9375,0.1875],"min":[-0.1875,-0.9375,-0.1875],"type":"VEC3"},{"bufferView":1,"componentType":5126,"count":192,"max":[1,1,1],"min":[-1,-1,-1],"type":"VEC3"},{"bufferView":2,"componentType":5126,"count":192,"max":[0.6944812536239624,0.828125],"min":[0,0],"type":"VEC2"},{"bufferView":3,"componentType":5123,"count":288,"max":[191],"min":[0],"type":"SCALAR"},{"bufferView":4,"componentType":5126,"count":120,"max":[0.5,1.125,0.5],"min":[-0.5,1,-0.5],"type":"VEC3"},{"bufferView":5,"componentType":5126,"count":120,"max":[1,1,1],"min":[-1,-1,-1],"type":"VEC3"},{"bufferView":6,"componentType":5126,"count":120,"max":[0.6791468858718872,0.5703125],"min":[0,0],"type":"VEC2"},{"bufferView":7,"componentType":5123,"count":144,"max":[119],"min":[0],"type":"SCALAR"},{"bufferView":8,"componentType":5126,"count":120,"max":[0.1875,1.25,0.1875],"min":[-0.1875,1.125,-0.1875],"type":"VEC3"},{"bufferView":9,"componentType":5126,"count":120,"max":[1,1,1],"min":[-1,-1,-1],"type":"VEC3"},{"bufferView":10,"componentType":5126,"count":120,"max":[0.4133703112602234,0.4453125],"min":[0.0546875,0.0546875],"type":"VEC2"},{"bufferView":11,"componentType":5123,"count":144,"max":[119],"min":[0],"type":"SCALAR"},{"bufferView":12,"componentType":5126,"count":120,"max":[0.5625,1,0.5625],"min":[-0.5625,0.9375,-0.5625],"type":"VEC3"},{"bufferView":13,"componentType":5126,"count":120,"max":[1,1,1],"min":[-1,-1,-1],"type":"VEC3"},{"bufferView":14,"componentType":5126,"count":120,"max":[0.8182382583618164,0.5625],"min":[0,0],"type":"VEC2"},{"bufferView":15,"componentType":5123,"count":144,"max":[119],"min":[0],"type":"SCALAR"},{"bufferView":16,"componentType":5126,"count":120,"max":[0.1875,-1.125,0.1875],"min":[-0.1875,-1.25,-0.1875],"type":"VEC3"},{"bufferView":17,"componentType":5126,"count":120,"max":[1,1,1],"min":[-1,-1,-1],"type":"VEC3"},{"bufferView":18,"componentType":5126,"count":120,"max":[0.5227453112602234,0.3125],"min":[0.1484375,0.1328125],"type":"VEC2"},{"bufferView":19,"componentType":5123,"count":144,"max":[119],"min":[0],"type":"SCALAR"},{"bufferView":20,"componentType":5126,"count":120,"max":[0.5,-1,0.5],"min":[-0.5,-1.125,-0.5],"type":"VEC3"},{"bufferView":21,"componentType":5126,"count":120,"max":[1,1,1],"min":[-1,-1,-1],"type":"VEC3"},{"bufferView":22,"componentType":5126,"count":120,"max":[0.7807093858718872,0.5859375],"min":[0.234375,0.234375],"type":"VEC2"},{"bufferView":23,"componentType":5123,"count":144,"max":[119],"min":[0],"type":"SCALAR"},{"bufferView":24,"componentType":5126,"count":120,"max":[0.5625,-0.9375,0.5625],"min":[-0.5625,-1,-0.5625],"type":"VEC3"},{"bufferView":25,"componentType":5126,"count":120,"max":[1,1,1],"min":[-1,-1,-1],"type":"VEC3"},{"bufferView":26,"componentType":5126,"count":120,"max":[0.8182382583618164,0.625],"min":[0.21875,0],"type":"VEC2"},{"bufferView":27,"componentType":5123,"count":144,"max":[119],"min":[0],"type":"SCALAR"},{"bufferView":28,"componentType":5126,"count":192,"max":[0.1875,0.9375,0.1875],"min":[-0.1875,-0.9375,-0.1875],"type":"VEC3"},{"bufferView":29,"componentType":5126,"count":192,"max":[1,1,1],"min":[-1,-1,-1],"type":"VEC3"},{"bufferView":30,"componentType":5126,"count":192,"max":[0.7335437536239624,0.9140625],"min":[0.0945812463760376,0],"type":"VEC2"},{"bufferView":31,"componentType":5123,"count":288,"max":[191],"min":[0],"type":"SCALAR"},{"bufferView":32,"componentType":5126,"count":120,"max":[0.5,1.125,0.5],"min":[-0.5,1,-0.5],"type":"VEC3"},{"bufferView":33,"componentType":5126,"count":120,"max":[1,1,1],"min":[-1,-1,-1],"type":"VEC3"},{"bufferView":34,"componentType":5126,"count":120,"max":[0.7885218858718872,0.5859375],"min":[0.453125,0.1171875],"type":"VEC2"},{"bufferView":35,"componentType":5123,"count":144,"max":[119],"min":[0],"type":"SCALAR"},{"bufferView":36,"componentType":5126,"count":120,"max":[0.1875,1.25,0.1875],"min":[-0.1875,1.125,-0.1875],"type":"VEC3"},{"bufferView":37,"componentType":5126,"count":120,"max":[1,1,1],"min":[-1,-1,-1],"type":"VEC3"},{"bufferView":38,"componentType":5126,"count":120,"max":[0.5227453112602234,0.453125],"min":[0.265625,0.2578125],"type":"VEC2"},{"bufferView":39,"componentType":5123,"count":144,"max":[119],"min":[0],"type":"SCALAR"},{"bufferView":40,"componentType":5126,"count":120,"max":[0.5625,1,0.5625],"min":[-0.5625,0.9375,-0.5625],"type":"VEC3"},{"bufferView":41,"componentType":5126,"count":120,"max":[1,1,1],"min":[-1,-1,-1],"type":"VEC3"},{"bufferView":42,"componentType":5126,"count":120,"max":[0.8182382583618164,0.7109375],"min":[0,0.109375],"type":"VEC2"},{"bufferView":43,"componentType":5123,"count":144,"max":[119],"min":[0],"type":"SCALAR"},{"bufferView":44,"componentType":5126,"count":120,"max":[0.1875,-1.125,0.1875],"min":[-0.1875,-1.25,-0.1875],"type":"VEC3"},{"bufferView":45,"componentType":5126,"count":120,"max":[1,1,1],"min":[-1,-1,-1],"type":"VEC3"},{"bufferView":46,"componentType":5126,"count":120,"max":[0.2180578112602234,0.53125],"min":[0,0.3828125],"type":"VEC2"},{"bufferView":47,"componentType":5123,"count":144,"max":[119],"min":[0],"type":"SCALAR"},{"bufferView":48,"componentType":5126,"count":120,"max":[0.5,-1,0.5],"min":[-0.5,-1.125,-0.5],"type":"VEC3"},{"bufferView":49,"componentType":5126,"count":120,"max":[1,1,1],"min":[-1,-1,-1],"type":"VEC3"},{"bufferView":50,"componentType":5126,"count":120,"max":[0.8041468858718872,0.671875],"min":[0.109375,0.2890625],"type":"VEC2"},{"bufferView":51,"componentType":5123,"count":144,"max":[119],"min":[0],"type":"SCALAR"},{"bufferView":52,"componentType":5126,"count":120,"max":[0.5625,-0.9375,0.5625],"min":[-0.5625,-1,-0.5625],"type":"VEC3"},{"bufferView":53,"componentType":5126,"count":120,"max":[1,1,1],"min":[-1,-1,-1],"type":"VEC3"},{"bufferView":54,"componentType":5126,"count":120,"max":[0.8573007583618164,0.7421875],"min":[0.1171875,0],"type":"VEC2"},{"bufferView":55,"componentType":5123,"count":144,"max":[119],"min":[0],"type":"SCALAR"}],"materials":[{"pbrMetallicRoughness":{"metallicFactor":0,"roughnessFactor":1,"baseColorTexture":{"index":0}},"alphaMode":"MASK","alphaCutoff":0.05,"doubleSided":true}],"textures":[{"sampler":0,"source":0,"name":"texture"}],"samplers":[{"magFilter":9728,"minFilter":9728,"wrapS":33071,"wrapT":33071}],"images":[{"mimeType":"image/png","uri":"data:image/png;base64,"}],"meshes":[{"primitives":[{"mode":4,"attributes":{"POSITION":0,"NORMAL":1,"TEXCOORD_0":2},"indices":3,"material":0}]},{"primitives":[{"mode":4,"attributes":{"POSITION":4,"NORMAL":5,"TEXCOORD_0":6},"indices":7,"material":0}]},{"primitives":[{"mode":4,"attributes":{"POSITION":8,"NORMAL":9,"TEXCOORD_0":10},"indices":11,"material":0}]},{"primitives":[{"mode":4,"attributes":{"POSITION":12,"NORMAL":13,"TEXCOORD_0":14},"indices":15,"material":0}]},{"primitives":[{"mode":4,"attributes":{"POSITION":16,"NORMAL":17,"TEXCOORD_0":18},"indices":19,"material":0}]},{"primitives":[{"mode":4,"attributes":{"POSITION":20,"NORMAL":21,"TEXCOORD_0":22},"indices":23,"material":0}]},{"primitives":[{"mode":4,"attributes":{"POSITION":24,"NORMAL":25,"TEXCOORD_0":26},"indices":27,"material":0}]},{"primitives":[{"mode":4,"attributes":{"POSITION":28,"NORMAL":29,"TEXCOORD_0":30},"indices":31,"material":0}]},{"primitives":[{"mode":4,"attributes":{"POSITION":32,"NORMAL":33,"TEXCOORD_0":34},"indices":35,"material":0}]},{"primitives":[{"mode":4,"attributes":{"POSITION":36,"NORMAL":37,"TEXCOORD_0":38},"indices":39,"material":0}]},{"primitives":[{"mode":4,"attributes":{"POSITION":40,"NORMAL":41,"TEXCOORD_0":42},"indices":43,"material":0}]},{"primitives":[{"mode":4,"attributes":{"POSITION":44,"NORMAL":45,"TEXCOORD_0":46},"indices":47,"material":0}]},{"primitives":[{"mode":4,"attributes":{"POSITION":48,"NORMAL":49,"TEXCOORD_0":50},"indices":51,"material":0}]},{"primitives":[{"mode":4,"attributes":{"POSITION":52,"NORMAL":53,"TEXCOORD_0":54},"indices":55,"material":0}]}]}